<?xml version="1.0" encoding="UTF-8" standalone="no"?>
<!-- Created with Inkscape (http://www.inkscape.org/) -->

<svg
   width="210mm"
   height="297mm"
   viewBox="0 0 210 297"
   version="1.1"
   id="svg1"
   inkscape:version="1.4.2 (f4327f4, 2025-05-13)"
   sodipodi:docname="drawing.svg"
   xmlns:inkscape="http://www.inkscape.org/namespaces/inkscape"
   xmlns:sodipodi="http://sodipodi.sourceforge.net/DTD/sodipodi-0.dtd"
   xmlns="http://www.w3.org/2000/svg"
   xmlns:svg="http://www.w3.org/2000/svg">
  <sodipodi:namedview
     id="namedview1"
     pagecolor="#ffffff"
     bordercolor="#000000"
     borderopacity="0.25"
     inkscape:showpageshadow="2"
     inkscape:pageopacity="0.0"
     inkscape:pagecheckerboard="0"
     inkscape:deskcolor="#d1d1d1"
     inkscape:document-units="mm"
     inkscape:zoom="0.72604517"
     inkscape:cx="254.11642"
     inkscape:cy="441.43259"
     inkscape:window-width="1920"
     inkscape:window-height="1017"
     inkscape:window-x="-8"
     inkscape:window-y="-8"
     inkscape:window-maximized="1"
     inkscape:current-layer="layer1"
     showguides="true">
    <sodipodi:guide
       position="-221.93006,338.17915"
       orientation="0.70710678,-0.70710678"
       id="guide43"
       inkscape:locked="false" />
  </sodipodi:namedview>
  <defs
     id="defs1">
    <linearGradient
       id="swatch10"
       inkscape:swatch="solid">
      <stop
         style="stop-color:#f20000;stop-opacity:1;"
         offset="0"
         id="stop10" />
    </linearGradient>
    <linearGradient
       id="swatch9"
       inkscape:swatch="solid">
      <stop
         style="stop-color:#000000;stop-opacity:1;"
         offset="0"
         id="stop9" />
    </linearGradient>
  </defs>
  <g
     inkscape:label="Layer 1"
     inkscape:groupmode="layer"
     id="layer1"
     sodipodi:insensitive="true">
    <g
       id="g21"
       transform="translate(55.391412,27.331288)">
      <g
         id="g20">
        <g
           id="g19"
           style="stroke:#00ff00">
          <g
             id="g18"
             transform="matrix(1.0243602,0,0,1.0225019,-1.0322688,-1.6034829)"
             style="stroke:#00ff00">
            <path
               style="fill:none;fill-opacity:1;stroke:#00ff00;stroke-width:3.75683;stroke-dasharray:none"
               id="path15"
               sodipodi:type="arc"
               sodipodi:cx="-173.47208"
               sodipodi:cy="47.215389"
               sodipodi:rx="22.848623"
               sodipodi:ry="23.70392"
               sodipodi:start="0.36847007"
               sodipodi:end="4.7316174"
               sodipodi:open="true"
               sodipodi:arc-type="arc"
               d="m -152.15706,55.753271 a 22.848623,23.70392 0 0 1 -27.01336,14.417034 22.848623,23.70392 0 0 1 -16.94041,-26.16032 22.848623,23.70392 0 0 1 23.07807,-20.494134"
               transform="matrix(-0.43902911,-0.89847284,0.94294506,-0.33294835,0,0)" />
            <path
               style="fill:none;fill-opacity:1;stroke:#00ff00;stroke-width:3.90507;stroke-dasharray:none"
               id="path16"
               sodipodi:type="arc"
               sodipodi:cx="107.31413"
               sodipodi:cy="120.9173"
               sodipodi:rx="24.519636"
               sodipodi:ry="24.133505"
               sodipodi:start="6.2632481"
               sodipodi:end="4.6759022"
               sodipodi:open="true"
               sodipodi:arc-type="arc"
               d="M 131.8289,120.43617 A 24.519636,24.133505 0 0 1 107.93818,145.04298 24.519636,24.133505 0 0 1 82.806255,121.6646 24.519636,24.133505 0 0 1 106.41969,96.799855"
               transform="matrix(0.97102259,0.23898772,-0.25324601,0.96740191,0,0)" />
            <path
               style="fill:none;fill-opacity:1;stroke:#00ff00;stroke-width:3.90572;stroke-dasharray:none"
               id="path17"
               sodipodi:type="arc"
               sodipodi:cx="26.803267"
               sodipodi:cy="-143.13939"
               sodipodi:rx="24.090414"
               sodipodi:ry="24.299238"
               sodipodi:start="0.27468843"
               sodipodi:end="4.7316174"
               sodipodi:open="true"
               sodipodi:arc-type="arc"
               d="M 49.990525,-136.54829 A 24.090414,24.299238 0 0 1 22.264576,-119.2753 24.090414,24.299238 0 0 1 2.8439725,-145.67118 24.090414,24.299238 0 0 1 27.266459,-167.43414"
               transform="matrix(-0.61127257,0.79142015,-0.80906571,-0.5877182,0,0)" />
          </g>
        </g>
      </g>
    </g>
    <g
       id="g29"
       transform="translate(26.602454,-72.154601)">
      <g
         id="g28">
        <g
           id="g27"
           style="stroke:#00ff00">
          <g
             id="g26"
             transform="matrix(1.0243602,0,0,1.0225019,-1.0322688,-1.6034829)"
             style="stroke:#00ff00">
            <path
               style="fill:none;fill-opacity:1;stroke:#00ff00;stroke-width:3.75683;stroke-dasharray:none"
               id="path24"
               sodipodi:type="arc"
               sodipodi:cx="-173.47208"
               sodipodi:cy="47.215389"
               sodipodi:rx="22.848623"
               sodipodi:ry="23.70392"
               sodipodi:start="0.36847007"
               sodipodi:end="4.7316174"
               sodipodi:open="true"
               sodipodi:arc-type="arc"
               d="m -152.15706,55.753271 a 22.848623,23.70392 0 0 1 -27.01336,14.417034 22.848623,23.70392 0 0 1 -16.94041,-26.16032 22.848623,23.70392 0 0 1 23.07807,-20.494134"
               transform="matrix(-0.43902911,-0.89847284,0.94294506,-0.33294835,0,0)" />
            <path
               style="fill:none;fill-opacity:1;stroke:#00ff00;stroke-width:3.90507;stroke-dasharray:none"
               id="path25"
               sodipodi:type="arc"
               sodipodi:cx="107.31413"
               sodipodi:cy="120.9173"
               sodipodi:rx="24.519636"
               sodipodi:ry="24.133505"
               sodipodi:start="6.2632481"
               sodipodi:end="4.6759022"
               sodipodi:open="true"
               sodipodi:arc-type="arc"
               d="M 131.8289,120.43617 A 24.519636,24.133505 0 0 1 107.93818,145.04298 24.519636,24.133505 0 0 1 82.806255,121.6646 24.519636,24.133505 0 0 1 106.41969,96.799855"
               transform="matrix(0.97102259,0.23898772,-0.25324601,0.96740191,0,0)" />
            <path
               style="fill:none;fill-opacity:1;stroke:#00ff00;stroke-width:3.90572;stroke-dasharray:none"
               id="path26"
               sodipodi:type="arc"
               sodipodi:cx="26.803267"
               sodipodi:cy="-143.13939"
               sodipodi:rx="24.090414"
               sodipodi:ry="24.299238"
               sodipodi:start="0.27468843"
               sodipodi:end="4.7316174"
               sodipodi:open="true"
               sodipodi:arc-type="arc"
               d="M 49.990525,-136.54829 A 24.090414,24.299238 0 0 1 22.264576,-119.2753 24.090414,24.299238 0 0 1 2.8439725,-145.67118 24.090414,24.299238 0 0 1 27.266459,-167.43414"
               transform="matrix(-0.61127257,0.79142015,-0.80906571,-0.5877182,0,0)" />
          </g>
        </g>
      </g>
    </g>
    <g
       id="g33"
       transform="matrix(0.80334917,0,0,0.7182354,-41.780856,-39.217651)">
      <path
         style="fill:#ff2a2a;fill-opacity:1;stroke:#ff2a2a;stroke-width:2.7271;stroke-dasharray:none"
         d="m 95.969827,71.631057 c 0,0 -31.142736,20.222122 -32.262259,34.887823 -0.843068,11.04415 11.043319,24.29858 21.287972,23.98746 6.88379,-0.20905 13.445037,-16.96083 13.445037,-16.96083 0,0 11.114063,17.94573 19.271223,16.71853 8.17024,-1.22916 15.64853,-13.00006 14.34136,-21.80678 C 129.71656,92.714871 95.969827,71.631057 95.969827,71.631057 Z"
         id="path31"
         sodipodi:nodetypes="csscssc" />
      <path
         id="rect31"
         style="fill:#ff2a2a;fill-opacity:1;stroke:#ff2a2a;stroke-width:4.265;stroke-dasharray:none"
         d="m 86.104338,116.75662 a 35.528641,48.283245 0 0 1 9.088335,32.25074 35.528641,48.283245 0 0 1 -13.347506,37.71708 h 32.187693 a 35.528641,48.283245 0 0 1 -11.18381,-35.16633 35.528641,48.283245 0 0 1 10.90166,-34.80149 z" />
      <g
         id="g42" />
    </g>
    <g
       id="g43"
       transform="matrix(0.88763072,0,0,0.73027674,-40.729336,81.143214)">
      <path
         id="path42"
         style="fill:#00ff00;fill-opacity:1;stroke:#008000;stroke-width:7.10966;stroke-dasharray:none"
         d="m 263.36197,203.95265 a 60.191253,79.195584 0 0 1 15.39709,52.89859 60.191253,79.195584 0 0 1 -22.61281,61.86467 h 54.53114 a 60.191253,79.195584 0 0 1 -18.94717,-57.68084 60.191253,79.195584 0 0 1 18.46916,-57.08242 z"
         transform="matrix(0.80334916,0,0,0.7182354,-125.23239,-44.68391)" />
      <g
         id="g39"
         transform="translate(-2.9153358,15.305523)">
        <g
           id="g38"
           transform="matrix(1.035938,0,-0.02401556,1.0155669,8.9472074,-62.443948)"
           style="fill:#00ff00">
          <g
             id="g37"
             style="fill:#00ff00">
            <g
               id="g36"
               style="fill:#00ff00;stroke:#00ff00">
              <g
                 id="g35"
                 transform="matrix(1.0243602,0,0,1.0225019,-1.0322688,-1.6034829)"
                 style="fill:#00ff00;stroke:#00ff00">
                <path
                   style="fill:#00ff00;fill-opacity:1;stroke:#00ff00;stroke-width:3.75683;stroke-dasharray:none"
                   id="path33"
                   sodipodi:type="arc"
                   sodipodi:cx="-173.47208"
                   sodipodi:cy="47.215389"
                   sodipodi:rx="22.848623"
                   sodipodi:ry="23.70392"
                   sodipodi:start="0.36847007"
                   sodipodi:end="4.7316174"
                   sodipodi:open="true"
                   sodipodi:arc-type="arc"
                   d="m -152.15706,55.753271 a 22.848623,23.70392 0 0 1 -27.01336,14.417034 22.848623,23.70392 0 0 1 -16.94041,-26.16032 22.848623,23.70392 0 0 1 23.07807,-20.494134"
                   transform="matrix(-0.43902911,-0.89847284,0.94294506,-0.33294835,0,0)" />
                <path
                   style="fill:#00ff00;fill-opacity:1;stroke:#00ff00;stroke-width:3.90507;stroke-dasharray:none"
                   id="path34"
                   sodipodi:type="arc"
                   sodipodi:cx="107.31413"
                   sodipodi:cy="120.9173"
                   sodipodi:rx="24.519636"
                   sodipodi:ry="24.133505"
                   sodipodi:start="6.2632481"
                   sodipodi:end="4.6759022"
                   sodipodi:open="true"
                   sodipodi:arc-type="arc"
                   d="M 131.8289,120.43617 A 24.519636,24.133505 0 0 1 107.93818,145.04298 24.519636,24.133505 0 0 1 82.806255,121.6646 24.519636,24.133505 0 0 1 106.41969,96.799855"
                   transform="matrix(0.97102259,0.23898772,-0.25324601,0.96740191,0,0)" />
                <path
                   style="fill:#00ff00;fill-opacity:1;stroke:#00ff00;stroke-width:3.90572;stroke-dasharray:none"
                   id="path35"
                   sodipodi:type="arc"
                   sodipodi:cx="26.803267"
                   sodipodi:cy="-143.13939"
                   sodipodi:rx="24.090414"
                   sodipodi:ry="24.299238"
                   sodipodi:start="0.27468843"
                   sodipodi:end="4.7316174"
                   sodipodi:open="true"
                   sodipodi:arc-type="arc"
                   d="M 49.990525,-136.54829 A 24.090414,24.299238 0 0 1 22.264576,-119.2753 24.090414,24.299238 0 0 1 2.8439725,-145.67118 24.090414,24.299238 0 0 1 27.266459,-167.43414"
                   transform="matrix(-0.61127257,0.79142015,-0.80906571,-0.5877182,0,0)" />
              </g>
            </g>
          </g>
        </g>
        <circle
           style="fill:#00ff00;fill-opacity:1;stroke:#00ff00;stroke-width:4.265;stroke-dasharray:none"
           id="path38"
           cx="110.60061"
           cy="69.057045"
           r="20.225155" />
      </g>
    </g>
  </g>
</svg>
